<?xml version="1.0" standalone="no"?><!DOCTYPE svg PUBLIC "-//W3C//DTD SVG 1.1//EN" "http://www.w3.org/Graphics/SVG/1.1/DTD/svg11.dtd"><svg t="1754624168601" class="icon" viewBox="0 0 1024 1024" version="1.1" xmlns="http://www.w3.org/2000/svg" p-id="1443" xmlns:xlink="http://www.w3.org/1999/xlink" width="64" height="64"><path d="M316.8828125 320.83789062q0-18.01757813-10.98632813-29.00390624t-29.00390624-10.98632813q-18.89648438 0-33.39843751 11.20605469t-14.50195312 28.78417969q0 17.13867188 14.50195312 28.34472656t33.3984375 11.20605469q18.01757813 0 29.00390625-10.76660157t10.98632813-28.78417968z m326.51367188 222.80273438q0-12.3046875-11.20605469-21.97265625t-28.78417969-9.66796875q-11.86523438 0-21.75292969 9.88769531t-9.88769531 21.75292969q0 12.3046875 9.88769531 22.19238281t21.75292969 9.88769532q17.578125 0 28.78417969-9.66796875t11.20605468-22.41210938z m-103.71093751-222.80273438q0-18.01757813-10.76660156-29.00390624t-28.78417969-10.98632813q-18.89648438 0-33.3984375 11.20605469t-14.50195312 28.78417969q0 17.13867188 14.50195312 28.34472656t33.3984375 11.20605469q18.01757813 0 28.78417969-10.76660157t10.76660156-28.78417968z m279.05273438 222.80273438q0-12.3046875-11.42578125-21.97265625t-28.56445313-9.66796875q-11.86523438 0-21.75292968 9.88769531t-9.88769531 21.75292969q0 12.3046875 9.88769531 22.19238281t21.75292969 9.88769532q17.13867188 0 28.56445312-9.66796875t11.42578125-22.41210938z m-116.89453125-174.46289063q-13.62304688-1.7578125-30.76171875-1.75781249-74.26757813 0-136.66992188 33.83789062t-98.21777343 91.62597656-35.81542969 126.34277344q0 34.27734375 10.10742188 66.796875-15.38085938 1.31835938-29.88281251 1.31835938-11.42578125 0-21.97265624-0.65917969t-24.16992188-2.85644532-19.55566406-3.07617187-23.95019531-4.61425781-21.97265625-4.61425782l-111.18164063 55.81054688 31.640625-95.80078125q-127.44140625-89.20898438-127.44140625-215.33203125 0-74.26757813 42.84667969-136.66992188t116.015625-98.21777343 159.74121093-35.81542969q77.34375 0 146.11816407 29.00390625t115.13671875 80.20019531 59.98535156 114.47753907z m260.15625 246.53320313q0 51.41601563-30.10253906 98.21777344t-81.51855469 85.03417968l24.16992188 79.54101563-87.45117188-47.90039063q-65.91796875 16.25976563-95.80078125 16.25976563-74.26757813 0-136.66992188-30.98144531t-98.21777343-84.15527344-35.81542969-116.015625 35.81542969-116.015625 98.21777343-84.15527344 136.66992188-30.98144531q70.75195313 0 133.15429688 30.98144531t99.97558593 84.375 37.57324219 115.79589844z" p-id="1444" fill="#ffffff"></path></svg>