<svg xmlns="http://www.w3.org/2000/svg" width="981" height="1004"><path fill="#8bbee6" stroke="#fff" stroke-width="24.42" d="m968.2 513.4-.2 15.2-.7 15.1-1.2 15-1.7 15-2.1 14.9-2.6 14.8-3.1 14.6-3.5 14.6-3.9 14.4-4.4 14.2-4.9 14.2-5.2 13.9-5.7 13.8-6.2 13.6-6.6 13.4-6.9 13.2-7.4 13-7.8 12.7-8.2 12.5-8.7 12.4-9 12-9.4 11.7-9.7 11.5-10.2 11.2-10.6 10.9-11 10.6-11.2 10.2-11.5 9.8-11.7 9.4-12 9-12.3 8.6-12.6 8.3-12.7 7.8-13 7.3-13.2 7-13.4 6.6-13.6 6.1-13.8 5.7-13.9 5.3-14.1 4.8-14.3 4.4-14.4 4-14.5 3.5-14.7 3-14.8 2.6-14.9 2.2-14.9 1.6-15.1 1.2-15.1.8-15.2.2-15.3-.2-15.1-.8-15-1.2-15-1.6-14.8-2.2-14.8-2.6-14.7-3-14.5-3.5-14.4-4-14.3-4.4-14.1-4.8-14-5.3-13.7-5.7-13.6-6.1-13.5-6.6-13.2-7-12.9-7.3-12.8-7.8-12.5-8.3-12.3-8.6-12-9-11.8-9.4-11.5-9.8-11.2-10.2-10.9-10.6-10.6-10.9-10.2-11.2-9.8-11.5-9.4-11.7-9-12-8.6-12.4-8.2-12.5-7.8-12.7-7.4-13-7-13.2-6.6-13.4-6.1-13.6-5.7-13.8-5.3-13.9-4.8-14.2-4.4-14.2-4-14.4-3.5-14.6-3-14.6-2.6-14.8-2.1-14.9-1.7-15-1.2-15-.7-15.1-.3-15.2.3-15.3.7-15.1 1.2-15 1.7-15 2.1-14.9 2.6-14.8 3-14.6 3.5-14.6 4-14.4 4.4-14.2 4.8-14.2 5.3-13.9 5.7-13.8 6.1-13.6 6.6-13.4 7-13.2 7.4-13 7.8-12.7 8.2-12.5 8.6-12.4 9-12 9.4-11.7 9.8-11.5 10.2-11.2 10.6-10.9 10.9-10.6 11.2-10.2 11.5-9.8 11.8-9.4 12-9 12.3-8.6 12.5-8.3 12.8-7.8 12.9-7.3 13.2-7 13.5-6.6 13.6-6.1 13.7-5.7 14-5.3 14.1-4.8 14.3-4.4 14.4-4 14.5-3.5 14.7-3 14.8-2.6 14.8-2.2 15-1.6 15-1.2 15.1-.8 15.3-.2 15.2.2 15.1.8 15.1 1.2 14.9 1.6 14.9 2.2 14.8 2.6 14.7 3 14.5 3.5 14.4 4 14.3 4.4 14.1 4.8 13.9 5.3 13.8 5.7 13.6 6.1 13.4 6.6 13.2 7 13 7.3 12.7 7.8 12.6 8.3 12.3 8.6 12 9 11.7 9.4 11.5 9.8 11.2 10.2 11 10.6 10.6 10.9 10.2 11.2 9.7 11.5 9.4 11.7 9 12 8.7 12.4 8.2 12.5 7.8 12.7 7.4 13 7 13.2 6.5 13.4 6.2 13.6 5.7 13.8 5.2 13.9 4.9 14.2 4.4 14.2 3.9 14.4 3.5 14.6 3.1 14.6 2.6 14.8 2.1 14.9 1.7 15 1.2 15 .7 15.1z"/><path fill="#fff" d="m490.4 1003.7-17.6-.3-17.3-.9-17.1-1.6-17-2.1-16.7-2.6-16.8-3.3-16.4-3.8-16.3-4.4-16-4.9-15.8-5.4-15.6-6-15.4-6.5-15-6.9-14.8-7.5-14.5-7.9-14.3-8.5-13.9-8.9-13.6-9.3-13.3-9.8-12.9-10.3-12.6-10.6-12.3-11.1-11.8-11.5-11.5-11.9-11.1-12.3-10.7-12.6-10.2-13.1-9.8-13.3-9.4-13.8-9-14.1-8.4-14.4-8-14.8-7.5-15-7-15.4-6.5-15.8-5.9-15.9L23 661l-4.9-16.4-4.4-16.9-3.8-17.1-3.1-17.3-2.6-17.1-1.9-17.1-1.3-17-.7-17-.1-17 .4-16.9 1.1-16.8 1.6-16.7 2.1-16.5 2.8-16.6 3.3-16.3 3.8-16.1 4.4-16 4.9-15.8 5.4-15.7 6-15.4 6.4-15.2 6.9-14.9 7.5-14.8 8-14.5 8.4-14.1 8.9-13.9 9.3-13.6 9.9-13.4 10.3-13 10.7-12.6 11.1-12.3 11.7-11.9 12-11.6 12.5-11.1 12.8-10.8 13.3-10.3 13.7-9.9 14.1-9.6 14.4-9 14.8-8.5 15.2-8.1 15.6-7.6 16-7.1 16.3-6.5 16.4-5.9 16.4-5.3 16.6-4.7 16.7-4 16.8-3.5 16.9-2.9 16.9-2.3 16.9-1.7 16.9-1.1 17-.5h17l16.9.7L534 25l16.9 1.8 16.7 2.4 16.7 3 16.5 3.5 16.5 4.1 16.3 4.7 16.2 5.3 15.9 5.8 15.8 6.4 15.7 6.9 15.4 7.6 15.2 8 14.9 8.6 14.6 9.2 14.4 9.8 14.2 10.3 13.8 10.8 13.4 11.3 12.8 11.6 12.3 12 11.9 12.4 11.4 12.8 11 13.1 10.4 13.5 9.9 13.8 9.5 14.1 8.9 14.5 8.5 14.7 7.9 14.9 7.3 15.3 6.9 15.4 6.3 15.8 5.8 15.9 5.2 16.1 4.7 16.2 4.1 16.5 3.5 16.7 3 16.7 2.4 16.9 1.8 17 1.2 17.1.6 17.2v17.2l-.6 17.3-1.2 17.3-1.9 17.5-2.5 17.4-3 17.1-3.7 16.9-4.2 16.7-4.8 16.5-5.3 16.3-5.9 16.1-6.5 15.7-6.9 15.5-7.5 15.3-8.1 15-8.5 14.6-9 14.3-9.5 14-9.9 13.7-10.5 13.4-10.9 12.9-11.3 12.6-11.7 12.2-12.3 11.8-12.6 11.4-13 10.9-13.4 10.5-13.8 10.1-14.3 9.7-14.5 9.1-14.9 8.6-15.3 8.1-15.6 7.6-16 7.2-15.3 6.1-15.3 5.6-15.5 5.1-15.7 4.6-15.8 4-15.9 3.5-16.1 2.9-16.1 2.5-16.2 1.8-16.3 1.4-16.3.8zm0-955.7-16.7.3-16.4.9-16.3 1.5-16 1.9-16 2.6-15.8 3.1-15.7 3.6-15.4 4.2-15.2 4.6-14.9 5.2-14.9 5.6-14.5 6.2-14.3 6.6-14.1 7.1-13.7 7.5-13.6 8-13.2 8.5-12.9 8.8-12.6 9.3-12.3 9.7-11.9 10.2-11.6 10.5-11.3 10.9-10.9 11.3-10.5 11.6-10.1 12.1-9.8 12.3-9.3 12.7-8.9 13.1-8.5 13.4-8 13.6-7.5 14-7.1 14.3-6.7 14.6-6.2 15-5.6 15-5.2 15.4-4.6 15.7-4.1 15.9-3.6 16.3-3 16.3-2.4 16.3-1.9 16.2-1.2 16.2-.7 16.1-.1 16.2.4 16 1 15.9 1.6 15.8 2 15.8 2.6 15.6L36 613l3.6 15.3 4.1 15.2 4.7 15 5.1 14.9 5.7 14.6 6.1 14.4 6.6 14.2 7.1 14 7.5 13.7 8 13.5 8.4 13.2 8.9 12.9 9.4 12.6 9.7 12.3 10.2 12 10.6 11.7 11 11.3 11.5 11 11.8 10.6 12.1 10.2 12.6 9.8 13 9.4 13.4 9.1 13.7 8.5 14 8.1 14.4 7.6 14.8 7.2 15.3 6.8 15.4 6.2 15.6 5.6 15.6 5.1 15.7 4.4 15.9 3.9 15.9 3.3 16 2.8 16.1 2.2 16 1.6 16.1 1 16.2.6 16-.1 16.1-.6 16-1.2 16-1.7 15.9-2.2 15.8-2.8 15.8-3.4 15.6-3.9 15.5-4.4 15.3-5L657 948l15-6.1 14.8-6.6 14.7-7.1 14.4-7.7 14.1-8.1 14-8.7 13.7-9.3 13.4-9.8 13.2-10.3 12.6-10.7 12.2-11 11.7-11.4 11.2-11.7 10.9-12.2 10.4-12.5 9.9-12.8 9.4-13.1 9-13.4 8.5-13.7 8-14 7.5-14.2 7-14.4 6.5-14.7 6-15 5.5-15.1 5-15.2 4.4-15.5 3.9-15.7 3.4-15.7 2.8-15.9 2.2-16.1 1.7-16.1 1.2-16.3.6-16.3v-16.3l-.6-16.4-1.2-16.5-1.7-16.6-2.4-16.5L947 423l-3.5-16-4-15.8-4.5-15.7-5.1-15.5-5.7-15.2-6.1-15-6.6-14.7-7.1-14.5-7.7-14.2-8-13.9-8.6-13.6-9-13.3-9.5-13-9.9-12.7-10.3-12.3-10.8-11.9-11.2-11.6-11.6-11.2-12-10.8-12.3-10.4-12.8-9.9-13.1-9.6-13.5-9.1-13.8-8.7-14.2-8.1-14.5-7.7-14.9-7.3-15.2-6.7-14.4-5.8-14.6-5.4-14.7-4.8-14.9-4.3-15-3.8-15.1-3.3-15.2-2.9-15.3-2.3-15.4-1.7-15.5-1.3-15.5-.8z"/><path fill="#7a4a3d" d="m200.4 275.1-7.2-1.8-12-1.9-7.8-.6h-11.1l-12.4 1-6.4 1.2-6.7 1.6-6.4 2-6.6 2.6-6.6 3.3-9.4 6-9.3 7.8-4.3 4.3-4.2 5-4 5.5-4 6.1-3.4 6.3-3.3 7-3.1 7.7-2.9 8.6-2.4 8.4-2 9.4-1.8 10.3-1.5 11.3-2.3 25-3.1 42.4-1.3 37.5-.2 15.4.3 22.2.8 17.4 1.2 15.8 2.6 21.2 2 10.7 11-41.4.7-.3h.7l1.9 1.9 1.3 2.1 5.5 11.6 1.4 1.4.8-.7 3.2-6.7 1.9-2.8 1.8-1.9 1.4-.9 1.4-.5h1.5l1.4.4 1.6 1 2.9 3 4.7-73.7 3.5-28.2 3.8-22.9 5.6-26 6.2-22.4 6-17.3 3.5-8.4 3.7-7.8 3.9-7.4 6.6-10.2 7.1-8.5 3.9-3.7 4.1-3.1 4.2-2.6 4.3-2.1 3.6-1.2 3.8-.9 3.9-.4h4l18.5 2 4.8.1 4.8-.4 3.4-.7 2.4-.9 1.6-1 1.9-2.3.5-3.2-.3-2.2-.9-2.4-1.9-3.5-2.7-3.8-6.3-7.3-6.6-6.3z"/><path fill="#e5afa1" d="m435.2 624.2 2 41.4 61.3 44.3 41.8-13.8 3.9-83.7zM728.5 381.9l6.5-.1 4.7.3 5.1.6 9.4 2.1 7.3 3.1 3.4 2.1 3.1 2.6 2.8 3 1.7 2.4 1.5 2.8 1.1 3.2.8 3.7.4 3.5v4.1l-.5 4.6-2 8.9-2.9 9.4-4.9 13.6-7 16.2-4.2 8.4-8.2 14.2-7.5 10.7-4.2 5-4.4 4.6-4.5 4.2-4.9 3.8-5 3.2-5.3 2.6-6.4 1.2-5 .4-5.5.1-6.7-.7-.8-.3-.7-.8-.7-3.4v-2.8l1.2-8.4 1.5-7.3 4.9-18.2 10.1-31.4L710 432zM234.5 364.2l-6.6-.1-4.7.2-5 .6-9.4 2.2-7.4 3.1-3.4 2.1-3.1 2.5-2.7 3-1.8 2.5-1.4 2.8-1.1 3.2-.9 3.6-.4 3.6v4.1l.5 4.6 2 8.8 3 9.4 4.9 13.7 6.9 16.1 4.2 8.5 8.2 14.2 7.6 10.7 4.2 5 4.3 4.6 4.6 4.2 4.9 3.8 5 3.2 5.3 2.6 6.3 1.2 5.1.4h5.4l6.8-.6.8-.3.7-.8.4-1.3.3-2.1v-2.8l-1.2-8.4-1.6-7.3-4.9-18.2-10-31.4-7.3-21.2z"/><path fill="#f4d5c1" d="m230.2 334 4 31.6 4.7 27 6.8 32 4.4 17.5 6.9 23.7 8.2 24.4 9.7 24.1 5.4 11.9 5.7 11.5 6.2 11.2 4.9 8.3 10.6 15.5 5.6 7.3 5.9 7 6.2 6.6 6.4 6.2 6.6 5.7 7 5.3 7.3 4.8 7.5 4.2 17.4 8 16.1 6.1 10.6 3.4 11.1 3.2 12.6 3 17.6 3.1 9.3 1.1 9.4.7 9.4.1 14.6-.7 13.5-1.2 20-2.8 24.3-4.6 13.1-3.2 13.7-3.9 18.1-6.3 8.9-3.7 8.8-4 8.4-4.5 8-4.8 8.1-6 10.9-9.8 11.2-11.9 5.7-6.8 13-17.5 6.4-9.7 6.7-11.1 7-12.8 4.9-9.5 9.9-21.9 5-12.5 4.5-12.2 4.5-13.3 4.3-14.3 4.3-15.5 3.8-15.1 3.5-16.3 3.3-17.5 3.1-18.8-8-16.3-9.6-16.8-6.1-9.3-7.1-10.1-5.2-6.6-11.4-13-6.2-6.3-6.6-5.8-6.9-5.5-11-7.3-11.6-5.8-6.1-2.3-6.3-1.8-6.4-1.3-6.7-.8-1.7 4.8-2.2 3.7-4.2 5.2-3.3 3.2-3.4 2.9-4.5 3.1-5.5 3.4-5.7 2.9-7 2.9-8.4 3-8.5 2.4-10.1 2.3-11.9 2.1-11.9 1.5-13.8 1.2-15.9.7-43.5 15.8-21.3-15.8-45.9-13.8-16.1-12.5-12.4-8.6-6.6-4-6.8-3.7-6.3-2.9-4.3-1.6-3.8-.9-3.4-.5H339l-2.2.4-1.9.7-1.7 1.2-1.3 1.4-1.1 2-.8 2.6-.4 3.4-12 2.2-5.2.6-3.2-.2-.4-.3.1-.3.6-.7 5.4-2.9-25 20.2-15.2 13.3-16.1 15-15.3 15.7-7.1 8z"/><path fill="#1e2c3f" d="m378.1 439.2-.3 3.6-.9 3.3-1.4 3.2-1.9 2.9-2.3 2.8-2.8 2.5-3.1 2.2-3.4 1.8-3.8 1.5-4 1.1-4.2.7-4.5.3-4.5-.3-4.2-.7-4-1.1-3.8-1.5-3.4-1.8-3.1-2.2-2.8-2.5-2.3-2.8-1.9-2.9-1.4-3.2-.9-3.3-.3-3.6.3-3.5.9-3.3 1.4-3.2 1.9-3 2.3-2.7 2.8-2.5 3.1-2.2 3.4-1.8 3.8-1.6 4-1.1 4.2-.7 4.5-.2 4.5.2 4.2.7 4 1.1 3.8 1.6 3.4 1.8 3.1 2.2 2.8 2.5 2.3 2.7 1.9 3 1.4 3.2.9 3.3z"/><path fill="#dc6965" d="m531.6 559.9-.8 4.6-2.5 4.4-2.3 2.6-3 2.4-3.7 2.4-3.9 1.9-4.4 1.6-5 1.4-5 1-5.5.6-5.8.2-5.8-.2-5.4-.6-5.1-1-4.9-1.4-4.5-1.6-3.9-1.9-3.6-2.4-3-2.4-2.3-2.6-2.5-4.4-.8-4.6.2-1.9 1.1-2.3 2.3-1.3 1.9-.2 6.6.9 16.5 3.6 6.4.8 6.8.4 6.9-.4 6.4-.8 16.5-3.6 6.6-.9 1.9.2 2.3 1.3 1.1 2.3z"/><path fill="#1e2c3f" d="m660.1 439.2-.3 3.6-.9 3.3-1.4 3.2-1.9 2.9-2.3 2.8-2.8 2.5-3.1 2.2-3.4 1.8-3.8 1.5-4 1.1-4.2.7-4.5.3-4.5-.3-4.2-.7-4-1.1-3.8-1.5-3.4-1.8-3.1-2.2-2.8-2.5-2.3-2.8-1.9-2.9-1.4-3.2-.9-3.3-.3-3.6.3-3.5.9-3.3 1.4-3.2 1.9-3 2.3-2.7 2.8-2.5 3.1-2.2 3.4-1.8 3.8-1.6 4-1.1 4.2-.7 4.5-.2 4.5.2 4.2.7 4 1.1 3.8 1.6 3.4 1.8 3.1 2.2 2.8 2.5 2.3 2.7 1.9 3 1.4 3.2.9 3.3zM318.3 406.4l8.5 12.1 1 .9 1.1.4 2.2-.4 1.3-1.7.1-1-.5-1.2-8.6-12.1-.9-.9-1.1-.4h-1.2l-1.9 1.1-.5.9-.1 1.1zM372.2 405.1l-11.6 10.1-.8 1.1-.1 1 .9 2 2 .9 1.1-.1 1.2-.6 11.5-10.2.8-1.1.2-1-.3-1-1.5-1.6-1.1-.3-1.1.1zM343 400.1l-.6 14.1.2 1.4.6.8 2 .7 2.1-.7.7-.9.4-1.3.6-14.1-.2-1.3-.6-.9-1-.5H345l-1 .5-.7.9z"/><path fill="#1e2c3f" d="m600 406.4 8.6 12.1.9.9 1.1.4 2.2-.4 1.4-1.7.1-1-.6-1.2-8.5-12.1-1-.9-1.1-.4H602l-1.9 1.1-.5.9-.1 1.1zM654 405.1l-11.6 10.1-.7 1.1-.2 1 .2 1.1 1.6 1.5 1.1.3 1.1-.1 1.2-.6 11.5-10.2.8-1.1.2-1-.3-1-1.6-1.6-1.1-.3-1.1.1zM624.8 400.1l-.6 14.1.2 1.4.6.8 2 .7 2.1-.7.7-.9.4-1.3.6-14.1-.2-1.3-.6-.9-1-.5h-2.2l-1 .5-.7.9z"/><path fill="#d2a597" d="m742.4 395-4.2-12.4-5-12.5-6.8-14-3.9-7.1-4.3-6.6-3.2-4.3-6.5-7.1-3.6-3-3.6-2.3-3.6-1.7-10.6 9.4-16.3 16.2-11.6 13.4-5.3 7.1-2.1-5.2-4.3-7.4-3.2-3.9-2.5-2.5-6.3-4.4-3.6-1.7-4.1-1.2-4.7-.9h-7.4l-9.1 1.6.6 18-.3 7.8-.6 3.1-.7 1.6-1.8.2-7.3-1.7-21.6-7.2-36.3-13.6-46.3-18.1-2 21.7-4.6 1.2-12.7 2.8-18.9 3-11 1.1-12.3.7-17-.2-8.9-.7-8.9-1.1-8.8-1.6-8.9-2.1-6.6-2-6.4-2.4-6.3-2.8-6.2-3.1-6-3.6-5.7-4-5.5-4.5-5.4-5-4.8-5.4-4.6-6-4.3-6.6-4-7.3-10.6 10-8.5 8.7-9.2 10.2-19.4 23.2-17.7 23.8-9 13-9.4 14.4-9.9 16.1 3-39.8 3.7-33.8 5.9-40.2 6.7-36.7 6.7-30.4 3.9-15.2 8.8-30.2 5-14.8 5.4-14.4 5.8-14 9.6-20.2 10.4-18.4 5.8-8.8 5.9-8.2 6.2-7.6 6.4-7 5.5-5.4 5.6-4.8 5.8-4.4 5.9-4 6.1-3.5 6.4-3.1 6.6-2.6 6.7-2 7.1-1.5 7.3-1 269.2 15.8 40 25.4 12.2 13.3 12.6 15.7 7 9.7 7.7 11.4 10 16.6 5.1 9.3 4.7 9.5 4.6 10 4.4 10.7 3.9 10.8 3.6 11.2 3.2 11.8 1.9 8.9 3 18.5 1 9.6-14.3 6.4-9.5 67-6.1 36.1z"/><path fill="#7a4a3d" d="m745.8 401.3-4.6-13.6-5.4-13.7-7.2-15.4-4.1-7.8-4.5-7.2-3.3-4.6-6.7-7.6-3.6-3.2-3.7-2.5-3.6-1.7-10.6 9.4-16.3 16.2-11.6 13.4-5.3 7.1-2-5.2-4.3-7.4-3.3-3.9-2.5-2.5-6.3-4.4-3.6-1.7-4.1-1.2-4.7-.9h-7.4l-9.1 1.6.7 18-.4 7.8-.6 3.1-.7 1.6-1.8.2-7.3-1.7-21.6-7.2-36.3-13.6-46.2-18.1-2 21.7-4.7 1.2-12.7 2.8-18.9 3-11 1.1-12.3.7-17-.2-8.9-.7-8.8-1.1-8.9-1.6-8.9-2.1-6.5-2-6.5-2.4-6.3-2.8-6.2-3.1-5.9-3.6-5.8-4-5.5-4.5-5.3-5-4.9-5.4-4.6-6-4.3-6.6-4-7.3-10.6 10-8.5 8.7-9.2 10.2-19.3 23.2-17.8 23.8-9 13-9.4 14.4-9.9 16.1-6.6-36-3.8-23.3-3.7-26-3.2-27-2-26.1-.4-12.4.3-18.4 1.4-11.9-23.6-8.9 4.3-16.4 6.3-17.9 4.3-10.4 5.4-11.6 8.6-15.9 10.6-16.6 6.1-8.3 6.8-8.3 7.1-8 7.8-7.9 8.5-7.7 2-3.2.9-2.6.6-3.9-.5-4.8-1-2.5-1.5-2.9-1.9-2.6-2.7-2.9-3.8-3.2-.8-2 .2-2.7 1.7-3 3.3-3.1 2.9-1.9 7.1-3.6 5.4-2.2 12.4-3.8 8.5-2.2 13.6-2.8 17.7-3.1 19.4-2.8 24.4-2.8 6.3-1.2 6-2.4 2.8-1.6 7.4-5.4 6.8-4.5 10.7-6.1 6.8-3.2 14.8-6 8.9-2.9 9-2.4 9.9-2.2 11.1-2L479.9.7l19.6-.7 9.9.1 21.7 1.5L543 3l8.1 1.4 7.9 2 7.8 2.6 71 26.7 10.7 4.4 10.4 4.9 10 5.4 9.7 5.8 9.3 6.5 8.9 6.8 8.5 7.3 8.2 7.7 7.7 8.1 7.2 8.5 6.8 8.9 6.4 9.2 5.8 9.6 5.3 9.8 4.9 10.2 4.3 10.4 3.7 10.7 3.2 10.9 2.6 11.2 2.1 11.4 5 37.8 3.9 39.2-18.1 4.5-9.6 67-6.1 36.2z"/><path fill="#dc6965" d="M223.9 335.8 204 294.9 161.5 352zM204.2 294.9l30.6-33.6-68.7-18.4z"/><path fill="#7a4a3d" d="m733.6 275.6 1.4-.7 6.9-1.7 13-1.9 7.9-.5 9.3-.1 12.9 1.2 6.9 1.2 6.8 1.7 7 2.4 7 2.9 5.1 2.6 5.1 3 5 3.6 5 4 4.6 4.3 4.6 4.9 4.4 5.6 4.3 6.2 3.8 6.4 3.5 7.1 3.4 8 3.2 8.9 2.5 8.8 2.3 9.8 1.9 10.9 1.6 12 2.5 27.1 1.9 24 1.2 21.3.9 21.2.3 34.4-.5 22.8-1 17.2-1.4 15.3-1.3 10.3-.4 1.2-.8 1-1 .7-1.2.3-1.3-.1-1.1-.5-.9-.8-.7-1.1-16.1-45.3-.6-1.2-1-.9-1.3-.4h-1.3l-1.3.4-1 .9-.6 1.1-.5 2.7-.6 1.2-1 .8-1.3.5h-1.3l-1.3-.5-.9-.9-.7-1.1-8.7-26.3-2.3-8.9-3.4-30.7-3.7-25.3-5.5-28.5-3.4-14.7-5.5-19.3-6.4-18.4-3.6-8.6-7-13.8-6.8-10.2-3.5-4.3-3.9-4.1-4-3.5-4.1-2.8-4.3-2.3-3.5-1.4-3.7-.9-3.9-.5-4-.1-19.1 2-8.8-.3-5.1-1.2-3.1-2-.9-1.2-.6-1.4-.3-1.5.2-2.1.7-2.4 1.2-2.6 2.4-3.8 3.1-4.1 7-7.5z"/><path fill="#dc6965" d="m736.3 246.8 19.9 40.8 42.5-57zM756 287.6l-30.6 33.6 68.7 18.4z"/><path fill="#fff" d="m702 924-54.7-210.7-1.2-2.3-4.5-5.9-6.8-6.3-4.1-3.1-12-7.5-6.9-3.5-8.5-3.9-10.2-4.1 4.5 3.2 4.5 4 4.6 4.7 6 7.9 2.9 4.8 5.2 10.7 2.2 6 1.9 6.7 1.8 7.4L649 931.7l1.6 19.9 13.9-5.5 8-4 15.7-9.1zM331.5 949.7l.1-8.1 1.8-17.2 2.9-24.1 3.9-28.8 9.1-62.8 8.7-54.8 3.4-18.8 1.5-7 4.3-15.6 3.2-9.1 4.5-8.9 2.7-4.3 3.4-4.5 2.8-3.1 7.1-6.1 8.8-5.7 5.1-2.5 5.8-2.4 6.6-2.3-16 3.9-10.2 3.2-16.3 5.6-12.5 5.8-11.4 7-9.8 7.7-7.2 7.6-3.2 4.2-2.9 4.5-2.5 4.9-2 5.1-1.5 5.5-1 5.9-59.5 182.8 13.7 7.6 13.9 7.1 14.1 6.6 14.3 6.2 14.6 5.6z"/><path fill="#7f2020" d="m331.5 949.7.3.7 14.3 5 14.4 4.5L375 964l14.5 3.5 14.6 3.1 14.8 2.6 14.8 2.1 14.8 1.7 14.9 1.2 14.9.7 14.9.2 14.9-.3 14.9-.7 14.9-1.3 14.9-1.7 14.8-2.1 14.7-2.7 14.7-3.1 14.6-3.7 14.6-4.1-33.8-12.2-27.1-10.9-28.7-12.7-14.5-7.1-14.2-7.4-22.8-13.1-16.7-11.2-7.9-5.9-7.2-5.9-6.5-5.9-8.4-8.5-7.8-8.6-7.2-8.9-6.7-9.1-6.2-9-5.6-9-5.4-9.1-8.9-17.3-5.7-12.6-4.6-11.2-6.9-19.3-3.8-12.9-1.6-7.6-.1-4.4.9-8.6 2.3-8.3 1.7-4-2.4 4.7-1.7 4.6-5 16.9-2.3 10.2L358 754l-8.7 54.7-9.1 62.8-6.8 52.9-1.8 17.2z"/><path fill="#dc6965" d="m626.7 730.5-1.8-7.8-2.1-7-2.3-6.2-2.5-5.5-3-5.5-3-4.8-6.4-8.1-4.9-4.7-4.7-3.9-4.8-3.2-5.1-2.8-4.8-2.2-4.5-1.7-6.9-1.9-5.7-1.1-5.4-.5-6.9-.1-53.6 33.4-61.1-37.8-8.3 1.5-7.3 1.7-6.4 1.9-5.7 2.1-5.8 2.5-9.5 5.3-3.9 2.8-4.9 4.2-4 4.2-3.3 4.1-2.8 4.4-2.2 4.2-1.7 4-1.4 4.2-1.5 6.9-.5 4.7v6.1l1.6 7.6 3.8 13 6.9 19.3 4.6 11.1 5.7 12.7 8.9 17.2 5.4 9.2 5.6 8.9 6.2 9 6.7 9.2 7.2 8.8 7.8 8.6 8.4 8.5 6.5 6 7.2 5.9 7.9 5.9 16.7 11.1 9 5.4 13.8 7.7 14.2 7.5 14.5 7L551 930l28 11.9 25.6 9.8 21.6 7.7 24.5-8.2-1.7-21.1Z"/><path fill="#fcc" d="M414.2 664.6v16.1l.8 16.5 2 18.9 1.6 9.7 2 9.2 3.6 11.4 2.1 4.9 4 6.7 2.1 2.6 6.6 6.6 7.7 6.5 5.2 3.8 5.7 3.5 6.7 3.5 4.7 2 10.5 3.3 5.5 1 5.9.7 6.2.2 7.1-1.4 5.4-1.5 5.9-2.1 7-3 4.6-2.4 10-6.4 4.8-3.8 4.9-4.4 4.8-5.2 3.3-4.1 6.2-9.4 3-5.5 2.5-5.6 2.2-6.1 2.1-6.6 1.7-7.4 1.7-12.5 1-12.3.2-6.8-.2-6.7-.5-6.5-1.1-5.8-18.3-4-13-2.2-10.9 6.7-39.7 27-21.3-14.6-12-7.8-11.7-7.1-9.6-5.1-7.1.9-7.5 1.9z"/><path fill="#fff" d="m437.2 659.1.2 14.7.5 6.9 2.1 17.1 3.4 15.6 4 12.5 2.5 6.2 3 5.8 3.2 5.6 2.8 4 3 3.7 6.9 6.6 3.7 2.9 4.2 2.4 4.4 2.2 4.8 1.7 3.1-.6 8.1-2.5 5.1-2.2 6-3.1 8-5.4 4.2-3.5 3.9-3.8 3.8-4.4 3.7-5.2 4.7-8.5 2.1-4.9 3.4-10.8 1.3-6 .9-6.5.5-7.3.1-7-.3-7.6-.8-8.5-1.3-9.2-49.8 30.3Z"/><path fill="#fff" d="m501.9 715-.7 3.6-2.1 3.1-1.5 1.2-3.4 1.4h-3.7l-3.4-1.4-2.7-2.6-1.4-3.4v-3.8l1.4-3.4 2.7-2.6 3.4-1.4h3.7l3.4 1.4 2.7 2.6 1.4 3.4zM501.9 750.2l-.7 3.6-2.1 3.1-3.1 2.1-3.6.7-3.7-.7-3.1-2.1-2-3.1-.7-3.6.7-3.7 2-3 3.1-2.1 3.7-.7 3.6.7 3.1 2.1 2.1 3z"/><path fill="none" d="m433.8 663 57.5 31.2 1.3-.8-55.4-34.3-13.4 2.6-6.6 1.9 10.5-1.4 3.3.1zM556.1 663.5l12.4 3.4 12.4 3.8 12.2 4.3-5.7-3.3-5.9-2.8-6.1-2.2-6.3-1.7-6.5-1z"/><path fill="#fcc" d="M436.2 785.7 491 807l51.6-23.9 27.2 52.3-78.7-15.1-85.5 13.2z"/><path fill="#fcc" d="m491.1 814.1-54 98.8 38.1-18.8z"/><path fill="#fcc" d="m490.2 814.1 41.4 98.8-29.2-18.8z"/></svg>