<svg xmlns="http://www.w3.org/2000/svg" width="981" height="1020"><defs><clipPath id="a"><path d="m947.2 540-.3 14.6-.6 14.5-1.2 14.5-1.6 14.3-2 14.3-2.5 14.2-3 14.1-3.3 13.9-3.8 13.8-4.2 13.7-4.7 13.6-5 13.3-5.5 13.2-5.9 13.1-6.3 12.9-6.7 12.6-7.1 12.5-7.5 12.2-7.8 12-8.3 11.9-8.7 11.5-9 11.2-9.4 11.1-9.7 10.7-10.2 10.5-10.5 10.2-10.8 9.8-11 9.3-11.2 9.1-11.6 8.6-11.8 8.3-12 7.9-12.2 7.4-12.5 7.1-12.7 6.7-12.8 6.3-13.1 5.9-13.2 5.5-13.4 5-13.5 4.7-13.7 4.2-13.8 3.8-14 3.4-14 2.9-14.3 2.5-14.2 2-14.3 1.6-14.5 1.2-14.5.7-14.6.2-14.6-.2-14.5-.7-14.5-1.2-14.3-1.6-14.3-2-14.2-2.5-14.1-2.9-13.9-3.4-13.8-3.8-13.7-4.2-13.6-4.7-13.3-5-13.2-5.5-13.1-5.9-12.9-6.3-12.6-6.7-12.5-7.1-12.2-7.4-12-7.9-11.9-8.3-11.5-8.6-11.2-9.1-11.1-9.3-10.7-9.8-10.5-10.2-10.2-10.5-9.8-10.7-9.3-11.1-9.1-11.2-8.6-11.5-8.3-11.9-7.9-12-7.4-12.2-7.1-12.5-6.7-12.6-6.3-12.9-5.9-13.1-5.5-13.2-5-13.3-4.7-13.6-4.2-13.7-3.8-13.8-3.4-13.9-2.9-14.1-2.5-14.2-2-14.3-1.6-14.3-1.2-14.5-.7-14.5-.2-14.6.2-14.6.7-14.5 1.2-14.4 1.6-14.4 2-14.2 2.5-14.3 2.9-14 3.4-14 3.8-13.8 4.2-13.7 4.7-13.5 5-13.4 5.5-13.2 5.9-13.1 6.3-12.8 6.7-12.7 7.1-12.5 7.4-12.2 7.9-12 8.3-11.8 8.6-11.6 9.1-11.2 9.3-11 9.8-10.8 10.2-10.5 10.5-10.2 10.7-9.7 11.1-9.4 11.2-9 11.5-8.7 11.9-8.3 12-7.8 12.2-7.5 12.5-7.1 12.6-6.7 12.9-6.3 13.1-5.9 13.2-5.5 13.3-5 13.6-4.7 13.7-4.2 13.8-3.8 13.9-3.3 14.1-3 14.2-2.5 14.3-2 14.3-1.6 14.5-1.2 14.5-.6 14.6-.3 14.6.3 14.5.6 14.5 1.2 14.3 1.6 14.2 2 14.3 2.5 14 3 14 3.3 13.8 3.8 13.7 4.2 13.5 4.7 13.4 5 13.2 5.5 13.1 5.9 12.8 6.3 12.7 6.7 12.5 7.1 12.2 7.5 12 7.8 11.8 8.3 11.6 8.7 11.2 9 11 9.4 10.8 9.7 10.5 10.2 10.2 10.5 9.7 10.8 9.4 11 9 11.2 8.7 11.6 8.3 11.8 7.8 12 7.5 12.2 7.1 12.5 6.7 12.7 6.3 12.8 5.9 13.1 5.5 13.2 5 13.4 4.7 13.5 4.2 13.7 3.8 13.8 3.3 14 3 14 2.5 14.3 2 14.2 1.6 14.4 1.2 14.4.6 14.5z"/></clipPath></defs><path fill="#e3f0d5" d="m968.2 530-.2 15.2-.7 15.1-1.2 15-1.7 15-2.1 14.9-2.6 14.8-3.1 14.6-3.5 14.6-3.9 14.4-4.4 14.2-4.9 14.2-5.2 13.9-5.7 13.8-6.2 13.6-6.6 13.4-6.9 13.2-7.4 13-7.8 12.7-8.2 12.5-8.7 12.4-9 12-9.4 11.7-9.7 11.5-10.2 11.2-10.6 10.9-11 10.6-11.2 10.2-11.5 9.8-11.7 9.4-12 9-12.3 8.6-12.6 8.3-12.7 7.8-13 7.3-13.2 7-13.4 6.6-13.6 6.1-13.8 5.7-13.9 5.3-14.1 4.8-14.3 4.4-14.4 4-14.5 3.5-14.7 3-14.8 2.6-14.9 2.2-14.9 1.6-15.1 1.2-15.1.8-15.2.2-15.3-.2-15.1-.8-15-1.2-15-1.6-14.8-2.2-14.8-2.6-14.7-3-14.5-3.5-14.4-4-14.3-4.4-14.1-4.8-14-5.3-13.7-5.7-13.6-6.1-13.5-6.6-13.2-7-12.9-7.3-12.8-7.8-12.5-8.3-12.3-8.6-12-9-11.8-9.4-11.5-9.8-11.2-10.2-10.9-10.6-10.6-10.9-10.2-11.2-9.8-11.5-9.4-11.7-9-12-8.6-12.4-8.2-12.5-7.8-12.7-7.4-13-7-13.2-6.6-13.4-6.1-13.6-5.7-13.8-5.3-13.9-4.8-14.2-4.4-14.2-4-14.4-3.5-14.6-3-14.6-2.6-14.8-2.1-14.9-1.7-15-1.2-15-.7-15.1-.3-15.2.3-15.3.7-15.1 1.2-15 1.7-15 2.1-14.9 2.6-14.8 3-14.6 3.5-14.6 4-14.4 4.4-14.2 4.8-14.2 5.3-13.9 5.7-13.8 6.1-13.6 6.6-13.4 7-13.2 7.4-13 7.8-12.7 8.2-12.5 8.6-12.4 9-12 9.4-11.7 9.8-11.5 10.2-11.2 10.6-10.9 10.9-10.6 11.2-10.2 11.5-9.8 11.8-9.4 12-9 12.3-8.6 12.5-8.3 12.8-7.8 12.9-7.3 13.2-7 13.5-6.6 13.6-6.1 13.7-5.7 14-5.3 14.1-4.8 14.3-4.4 14.4-4 14.5-3.5 14.7-3 14.8-2.6 14.8-2.2 15-1.6 15-1.2 15.1-.8 15.3-.2 15.2.2 15.1.8 15.1 1.2 14.9 1.6 14.9 2.2 14.8 2.6 14.7 3 14.5 3.5 14.4 4 14.3 4.4 14.1 4.8 13.9 5.3 13.8 5.7 13.6 6.1 13.4 6.6 13.2 7 13 7.3 12.7 7.8 12.6 8.3 12.3 8.6 12 9 11.7 9.4 11.5 9.8 11.2 10.2 11 10.6 10.6 10.9 10.2 11.2 9.7 11.5 9.4 11.7 9 12 8.7 12.4 8.2 12.5 7.8 12.7 7.4 13 7 13.2 6.5 13.4 6.2 13.6 5.7 13.8 5.2 13.9 4.9 14.2 4.4 14.2 3.9 14.4 3.5 14.6 3.1 14.6 2.6 14.8 2.1 14.9 1.7 15 1.2 15 .7 15.1z"/><path fill="#fff" d="m490.4 1020.3-17.6-.3-17.3-.9-17.1-1.5-17-2.1-16.7-2.7-16.8-3.3-16.4-3.8-16.3-4.4-16-4.9-15.8-5.4-15.6-6-15.3-6.5-15.1-6.9-14.8-7.5-14.5-7.9-14.3-8.5-13.9-8.9-13.6-9.3-13.3-9.8-12.9-10.3-12.6-10.6-12.3-11.1-11.8-11.5-11.5-11.9-11.1-12.3-10.7-12.6-10.2-13.1-9.8-13.3-9.4-13.8-8.9-14.1-8.5-14.4-8-14.8-7.4-15-7-15.4-6.6-15.8-5.9-15.9-5.4-16.2-4.9-16.4-4.3-16.9-3.8-17.1L6.8 610l-2.6-17.2-1.9-17.1-1.3-17-.7-17-.1-17 .4-16.9L1.7 491l1.6-16.7 2.2-16.5 2.7-16.6 3.3-16.3 3.8-16.1 4.4-16 4.9-15.8 5.4-15.7 6-15.4 6.4-15.2 7-14.9 7.4-14.8 8-14.5 8.4-14.1 8.9-13.9 9.3-13.6 9.9-13.4 10.3-13 10.7-12.6 11.1-12.3 11.7-11.9 12-11.6 12.5-11.1 12.8-10.8 13.3-10.3 13.7-9.9 14.1-9.6 14.4-9 14.8-8.5 15.2-8.1 15.6-7.6 16-7.1 16.3-6.5 16.4-5.9 16.5-5.3 16.5-4.7 16.7-4.1 16.9-3.5 16.8-2.9 16.9-2.3 16.9-1.8 17-1.1 17-.5h16.9l17 .7 16.8 1.2 16.9 1.8 16.8 2.4 16.6 2.9 16.6 3.6 16.4 4.1 16.4 4.7 16.2 5.2 16 5.8 15.8 6.4 15.6 7 15.5 7.5 15.1 8 14.9 8.7 14.7 9.1 14.4 9.8 14.2 10.3 13.9 10.9 13.3 11.2 12.8 11.6 12.3 12 11.9 12.4 11.5 12.9 10.9 13.1 10.5 13.5 9.9 13.8 9.5 14.1 8.9 14.5 8.5 14.7 7.9 14.9 7.4 15.3 6.8 15.5 6.3 15.7 5.8 15.9 5.2 16.1 4.7 16.3 4.1 16.5 3.6 16.6 2.9 16.8 2.4 16.9 1.8 17 1.2 17.2.6 17.1v17.2l-.6 17.3-1.2 17.4-1.9 17.5-2.5 17.4-3 17.1-3.7 16.9-4.2 16.7-4.8 16.5-5.4 16.3-5.9 16.1-6.4 15.8-7 15.5-7.5 15.2-8.1 15-8.5 14.7-9 14.3-9.5 14-10 13.7-10.4 13.4-10.9 12.9-11.4 12.6-11.8 12.2-12.2 11.8-12.6 11.4-13 10.9-13.5 10.5-13.8 10.1-14.3 9.6-14.5 9.1-14.9 8.6L713 967l-15.7 7.7-16 7.1-15.3 6.1-15.3 5.6-15.5 5.1-15.7 4.6-15.8 4-15.9 3.5-16.1 2.9-16.1 2.5-16.2 1.9-16.3 1.3-16.3.8zm0-955.7-16.7.3-16.4.9-16.3 1.5-16 1.9-16 2.6-15.8 3.1-15.7 3.6-15.4 4.2-15.2 4.6-14.9 5.2-14.9 5.6-14.5 6.2-14.3 6.6-14.1 7.1-13.7 7.5-13.6 8-13.2 8.5-12.9 8.8-12.6 9.3-12.3 9.7L184 180l-11.6 10.5-11.3 10.9-10.9 11.3-10.5 11.6-10.1 12.1-9.8 12.3-9.3 12.7-8.9 13.1-8.5 13.4-8 13.6-7.5 14-7.1 14.3-6.7 14.6-6.2 15-5.6 15-5.2 15.4-4.6 15.7-4.1 15.9-3.6 16.3-3 16.3-2.4 16.3-1.9 16.2-1.2 16.2-.7 16.1-.1 16.2.4 16 1 15.9 1.6 15.8 2 15.8 2.6 15.6 3.2 15.5 3.6 15.3 4.1 15.2 4.7 15 5.1 14.9 5.7 14.6 6.1 14.4 6.6 14.2 7.1 14 7.5 13.7 8 13.5 8.4 13.2 8.9 12.9 9.4 12.6 9.7 12.3 10.2 12 10.6 11.7 11 11.3 11.5 11L186 882l12.1 10.2 12.6 9.8 13 9.4 13.4 9.1 13.7 8.5 14 8.1 14.4 7.6 14.8 7.2 15.3 6.8 15.4 6.2 15.6 5.6 15.6 5.1 15.7 4.4 15.9 3.9 15.9 3.3 16 2.8 16.1 2.2 16 1.6 16.1 1 16.2.6 16-.1 16.1-.6 16-1.2 16-1.7 15.9-2.2 15.8-2.8 15.8-3.4 15.6-3.9 15.5-4.4 15.3-5 15.2-5.5 15-6.1 14.8-6.6 14.7-7.1 14.4-7.7L730 929l14-8.7 13.7-9.3 13.4-9.8 13.2-10.3 12.6-10.7 12.2-11 11.7-11.4 11.2-11.7 10.9-12.2 10.4-12.5 9.9-12.8 9.4-13.1 9-13.4 8.5-13.7 8-14 7.5-14.2 7-14.4 6.5-14.7 6-15 5.5-15.1 5-15.2 4.4-15.5 3.9-15.7 3.4-15.7 2.8-15.9 2.2-16.1 1.7-16.1 1.2-16.3.6-16.3v-16.3l-.6-16.4L954 489l-1.7-16.6-2.4-16.5-2.9-16.3-3.5-16-4-15.8-4.5-15.7-5.1-15.5-5.7-15.2-6.1-15-6.6-14.7-7.1-14.5-7.7-14.2-8-13.9-8.6-13.6-9-13.3-9.5-13-9.9-12.7-10.3-12.3-10.8-11.9-11.2-11.6-11.6-11.2-12-10.8-12.3-10.4-12.8-9.9-13.1-9.6-13.5-9.1-13.8-8.7-14.2-8.1-14.5-7.7-14.9-7.3-15.2-6.7-14.4-5.8-14.6-5.4-14.7-4.8-14.9-4.3-15-3.8-15.1-3.3-15.2-2.8-15.3-2.3-15.4-1.8-15.5-1.3-15.5-.7z"/><g clip-path="url(#a)"><path fill="#d2a597" d="m250.4 396.9-6.5-.1-4.7.2-5 .6-9.5 2.2-7.3 3.1-3.4 2.1-3.1 2.5-2.7 3-1.8 2.5-1.4 2.8-1.2 3.2-.8 3.6-.4 3.6v4l.5 4.7 2 8.8 3 9.4 4.9 13.6 6.9 16.2 4.2 8.5 8.2 14.2 7.6 10.6 4.2 5 4.3 4.6 4.6 4.2 4.8 3.8 5.1 3.2 5.3 2.7 6.3 1.2 5 .4h5.5l6.8-.6.8-.4.6-.7.5-1.3.3-2.1-.1-2.8-1.1-8.4-1.6-7.4-4.9-18.2-10-31.4-7.3-21.1zM744.5 414.6l6.5-.1 4.7.2 5.1.6 9.4 2.2 7.3 3.1 3.4 2.1 3.1 2.5 2.8 3 1.7 2.5 1.4 2.8 1.2 3.2.8 3.6.4 3.6v4.1l-.5 4.6-2 8.8-2.9 9.4-4.9 13.7-7 16.2-4.2 8.4-8.2 14.2-7.5 10.7-4.2 5-4.4 4.6-4.5 4.2-4.9 3.8-5.1 3.2-5.2 2.6-6.4 1.2-5 .4h-5.5l-6.7-.6-.9-.3-.6-.8-.5-1.3-.2-2.1v-2.8l1.2-8.4 1.5-7.3 4.9-18.2 10.1-31.4 7.3-21.2zM451.2 656.9l2 41.3 61.3 44.4 41.8-13.8 3.9-83.7z"/><path fill="#f4d5c1" d="m246.2 366.7 4 31.6 4.6 26.9 6.9 32.1 4.4 17.5 6.9 23.7 8.2 24.4 9.6 24.1 5.4 11.9 5.8 11.5 6.2 11.2 4.9 8.3 10.5 15.5 5.6 7.2 6 7.1 6.2 6.6 6.4 6.1 6.6 5.8 7 5.3 7.3 4.8 7.5 4.2 17.4 7.9 16.1 6.2 10.6 3.4 11.1 3.2 12.6 3 17.6 3.1 9.3 1.1 9.4.6 9.4.2 14.6-.7 13.5-1.3 19.9-2.7 24.4-4.7 13.1-3.1 13.7-3.9 18-6.3 9-3.7 8.8-4.1 8.4-4.4 8-4.8 8.1-6 10.9-9.8 11.2-11.9 5.7-6.8 13-17.5 6.4-9.7 6.7-11.2 7-12.7 4.9-9.6 9.9-21.9 5-12.4 4.5-12.3 4.5-13.2 4.3-14.3 4.3-15.5 3.7-15.2 3.6-16.3 3.3-17.5 3.1-18.7-8-16.3-9.6-16.8-6.1-9.4-7.2-10-5.1-6.6-11.4-13.1-6.2-6.2-6.6-5.8-6.9-5.5-11-7.3-11.7-5.8-6-2.3-6.3-1.8-6.4-1.3-6.7-.8-1.7 4.8-2.2 3.7-4.2 5.2-3.3 3.2-3.4 2.9-4.5 3.1-5.5 3.3-5.7 2.9-7 3-8.4 2.9-8.5 2.5-10.1 2.3-11.9 2.1-11.9 1.5-13.8 1.2-15.9.7-43.5 15.8-21.3-15.8-46-13.8-16.1-12.6-12.4-8.5-6.6-4-6.7-3.7-6.3-2.9-4.3-1.6-3.8-1-3.4-.5H355l-2.2.4-1.9.8-1.7 1.1-1.3 1.5-1.1 2-.8 2.6-.4 3.4-12 2.2-5.2.5-3.2-.1-.4-.3.1-.4.6-.6 5.4-2.9-25 20.2-15.2 13.3-16.1 14.9-15.4 15.8-7 8z"/><path fill="#d2a597" d="m764 415.4-4.6-13.6L754 388l-7.1-15.4-4.2-7.7-4.5-7.2-3.3-4.7-6.6-7.6-3.7-3.2-3.6-2.5-3.7-1.7-10.6 9.4-16.2 16.2-11.7 13.4-5.3 7.1-2-5.2-4.3-7.4-3.3-3.9-2.5-2.5-6.2-4.4-3.6-1.7-4.1-1.2-4.7-.9h-7.4l-9.1 1.6.6 18-.4 7.8-.5 3.1-.7 1.6-1.8.2-7.3-1.7-21.6-7.2-36.4-13.6-46.2-18.1-2 21.7-4.6 1.2-12.7 2.9-19 2.9-11 1.2-12.3.6-16.9-.2-8.9-.6-8.9-1.1-8.8-1.7-8.9-2.1-13-4.4-12.5-5.9-6-3.5-5.7-4-5.5-4.6-5.3-5-4.9-5.3-4.6-6-4.3-6.7-4-7.3-10.6 10-8.5 8.8-9.2 10.1-19.3 23.2-17.8 23.8-9 13-9.4 14.4-9.9 16.1-6.6-36-3.8-23.3-3.7-26-3.2-27-2-26.1-.5-12.4.4-18.4 1.4-11.9-23.6-8.9 4.3-16.4 6.3-17.9 4.3-10.3 5.4-11.7 8.6-15.9 10.6-16.6 6.1-8.2 6.8-8.4 7.1-8 7.8-7.9 8.5-7.7 2-3.2.9-2.6.6-3.9-.5-4.7-1-2.6-1.5-2.9-1.9-2.6-2.7-2.9-3.8-3.1-.3-.9.6-2.6 1.1-1.6 2.3-2.2 3.1-2.1 5.2-2.7 6.1-2.5 9-2.9 10.2-2.8 13.8-3 15.3-2.8 19.7-3 21.3-2.6 26.5-2.8 9.7-5.5 17.2-8.5 11.7-5.1 12.8-4.9 15-5.2 10.4-3.1 23.4-5.9 12.3-2.5 13-2.1 13.7-1.7 21-1.4 11-.3 22.7.6 11.6.9 11.8 1.4 12.2 1.9 2 25.6 23.7 2.1 13.4 2 13.1 2.6 6 1.7 4.9 1.9 3.1 1.5 3.8 3-6.7 20.7 29.3 10.4 16.8 5.3-27.6 15.8 13 14.5 13.6 17.1 7.5 10.3 13.6 20.7 10.8 18.9 5.1 10 4.8 10.5 4.7 11 4.2 11.2 3.8 11.6 3.3 12 2.1 9.1 3.1 18.6 1 9.7-18.1 4.5-9.6 67-6.1 36.2z"/><path fill="#374968" d="m786.5 217.4-7 7.7-6 6-15.8 14.5-9.9 8.1-11.9 9-8.3 5.9-19.1 12.1-10.1 5.8-11 5.7-11.7 5.6-11.9 5.1-12.7 4.8-13.4 4.4-20.7 5.5-22.3 4.3-11.3 1.5-11.7 1.1-12.1.6-12.5.2-10.2-.3-17.3-1.5-11.5-1.5-12-2-13.8-3-9.3-2.3-20.1-6.1-10.2-3.7-10.4-4.3-10.7-4.8-10.5-5.4-10.5-6-10.6-6.8-7.7-5.3-7.5-5.9-7.5-6.3-7.4-6.8-7-7-6.9-7.6-6.6-8.1-6.5-8.7-6-8.9-5.7-9.5-5.4-10.1-5.1-10.9-6.4-6.6-10.1-11.5-6.1-7.7-6-8.3-6.4-9.7-7.8-13.8-3.8-7.6-3.3-7.7-3-8-2.6-8.4 7.5-4.3 6.6-3.1 7.7-3.2 10.5-3.5 7.4-2.2 18.8-4.2 10.1-1.6 11.5-1.5 12.9-1.1 12.9-.6 14.4-.1 16 .4 9.9-6.8 8.8-5.1 14.2-7 9.5-4.1 9.6-3.8 11.2-3.8 22.4-6.4 21.9-4.5 12.4-2.1 12.2-1.6 13-1.3 14.1-.9 15.1-.6 14.7-.1 15.7.4 16.7.9 17.9 1.5-2.3 28.8 66.3 16.5-4.9 24.7 36.4 2.6-10.8 43.7 11.3 7.9 11.7 9.2 13.4 12.1 6.9 7 11 12.9 7.8 11.1 3.4 5.9 3 6z"/><path fill="#374968" d="m782.5 208.1-8.1 9.2-6.9 7.1-8 7.6-10.5 9.1-7.5 6-18.1 13.1-9.9 6.3-10.8 6.4-12 6.3-18.6 8.6-20.9 8-10.8 3.4-11.2 3.1-11.9 2.7-12.4 2.4-12.4 1.8-12.9 1.3-13.5.8-14.1.2-10.2-.3-17.3-1.5-11.5-1.5-12-2-13.8-3-9.3-2.3-20.1-6.1-10.2-3.7-10.4-4.3-10.7-4.8-10.5-5.4-10.5-6-10.6-6.7-7.6-5.4-7.6-5.9-7.5-6.3-7.4-6.8-7-7-6.9-7.6-6.6-8.1-6.5-8.7-6-8.9-5.7-9.5-5.4-10.1-5.1-10.9-6.3-5.1-9.7-9.2-6-6.5-7.9-9.7-8.1-11.8-3.8-6.5-3.7-7.1-3.3-7.3-3-7.7-2.5-8.3 8.3-5.2 7.2-3.9 8.2-3.9 10.9-4.5 16.4-5.7 10-2.8 10.1-2.4 11.1-2.2 21.6-2.9 20.2-1.3 11.1-.2 9.9-6.8 8.8-5.1 14.2-7.1 9.5-4.1 9.6-3.7 11.2-3.8 22.4-6.4 21.9-4.6 12.4-2 12.2-1.6 13-1.3 14.1-1 15.1-.5 14.7-.2 15.7.4 16.8 1 17.8 1.5-2.3 28.7 66.4 16.6-5 24.6 45.3 13.8-15.2 32.5 11.4 11.8 5.3 5.9 12.4 15.3 6.5 9 6.3 9.4 5.9 10.1 3.7 7z"/><path fill="#fff" d="m392.9 693.2-10.5 4.4-4.9 2.4-11.4 7-6 4.5-7.4 6.9-3.6 4-3.2 4.2-2.9 4.5-2.5 4.9-2 5.1-1.5 5.5-.9 5.9-64.6 198.2 7 5.2 5.9 3.9 6.8 4.1 8.8 4.7 13.1 6 7.9 3 16.6 5.4 9.5 2.3 12.4 2.7 28.6 4.9 15 2.1 15.9 1.8 17.1 1.4 17 1 17.8.4h18.8l13.9-.4 29-2 15.1-1.6 14.9-1.9 15.1-2.5 15.5-2.9 15.7-3.5 15.5-3.9 15.7-4.5 15.9-5.1 16.1-5.7 7.7-3.2 8.1-4 15.6-9.1 13.8-9-54-208.5-1.4-3.5-4.1-5.9-6.8-6.6-8.4-6.1-10.8-6.3-7.2-3.6-16-6.7-10.1-3.6-22.2-6.8-13.6-3.5-56.1 33-57.5-31.2-2.5-.7-6.7.1-12.6 2.3-9.6 2.4-10.6 3.2z"/><path fill="#1664b2" d="m566.3 682.4 6.9.1 5.4.6 5.7 1 6.9 1.9 4.5 1.7 4.8 2.2 5.1 2.8 4.8 3.2 4.7 3.9 4.9 4.7 3.2 3.8 3.2 4.3 3 4.9 3 5.5 2.5 5.5 2.3 6.2 2.1 6.9 1.8 7.8 26.3 236.4-25.6 7.1-15.5 3.9-24.1 5.4-14.2 2.3-22.4 1.5-18.7.7-43.9.7-7.8-.5-23.5-2.8-23.3-3.6-7.4-1.5-33.7-8.7-16.4-4.5-16-4.9-13.8-4.8-5.9-2.5-4.1-2-2.4-1.6-1.3-1.3-.6-1-.1-2.1.3-6 1.7-17.2 3-24.1 8.3-60.1 9.2-61 4.2-25.3 4.8-25.8 3.7-13.5 1.7-5.5 2.3-5.9 1.8-3.9 2.4-3.9 2.9-4 3.3-3.7 4.1-3.7 5.1-3.8 8.4-4.9 11.4-4.8 5.9-2 14.6-3.7 8.9-1.7 58 34.8Z"/><path fill="#3390ff" d="M567.2 681.5h7l5.3.6 5.7 1.1 6.9 1.9 4.6 1.7 4.8 2.2 5 2.8 4.8 3.2 4.8 3.9 4.8 4.7 6.4 8.1 3.1 4.8 2.9 5.5 2.5 5.5 2.3 6.2 2.1 7 1.8 7.8 22.4 199.6 3 37.7-19-6.1-33-11.7-27.8-10.9-15-6.3-30.4-14-15.1-7.7-14.7-8.1-18.7-11.4-8.6-5.9-8.4-6.2-7.7-6.3-6.9-6.2-8.4-8.5-7.8-8.7-7.1-8.8-6.8-9.1-6.2-9-10.9-18.1-9-17.3-5.7-12.6-4.6-11.2-6.9-19.3-4.9-17.7-.5-2.8v-6.1l.5-4.7 1.5-7 3.1-8.1 2.2-4.2 2.9-4.4 3.2-4.2 4-4.1 4.9-4.2 8.3-5.5 5.1-2.6 11.5-4.7 6.5-1.9 7.3-1.7 8.2-1.4 61.1 37.8Z"/><path fill="#374968" d="M429.5 682.5v16.2l.8 16.5 2 18.9 1.6 9.6 2 9.2 3.6 11.5 2.1 4.9 4 6.7 2.1 2.6 6.6 6.6 7.6 6.5 5.3 3.7 5.7 3.6 6.7 3.4 4.7 2 10.5 3.3 5.5 1.1 5.9.7 6.2.1 7.1-1.3 5.4-1.6 5.9-2 7-3 4.6-2.4 10-6.4 4.8-3.8 4.9-4.5 4.8-5.1 3.3-4.1 6.2-9.5 3-5.5 2.5-5.5 2.2-6.1 2-6.7 1.8-7.3 1.7-12.5 1-12.4.2-6.7-.2-6.7-.6-6.6-1-5.7-18.3-4-13-2.2-3.5 1.9-7.4 4.8-39.7 26.9-21.3-14.5-12-7.8-11.7-7.1-9.7-5.1-7 .9-7.5 1.9z"/><path fill="#e4f3f9" d="m452 718 .1 6 .5 4.5.8 5 2.7 9.9 3.7 8.6 2.4 4.3 2.9 4.2 3.4 4.3 3.8 4 4.5 3.8 5.2 3.7 8.6 4.7 10.6 4h5.9l4.4-.6 4.9-.9 5.8-1.8 7.9-3.6 4.3-2.7 4.1-3 4.1-3.6 4.2-4.5 5.6-7.6 5.4-9.8 4.4-11 3.8-14-54.9-11.8Z"/><path fill="#fff" d="m452.5 677.1 55.5 31.4 50.9-36 27.2 54.4-78.7-15.1-85.4 13.1z"/><path fill="#1a191e" d="m517.2 740.1-.7 3.7-2.1 3.1-1.4 1.2-3.4 1.4h-3.8l-3.4-1.4-2.6-2.7-1.4-3.4v-3.7l1.4-3.4 2.6-2.7 3.4-1.4h3.8l3.4 1.4 2.6 2.7 1.4 3.4z"/><path fill="#dc6965" d="m540.4 600.3-.8 4.4-2.4 4.4-2.3 2.6-3 2.5-3.8 2.4-4 2-4.6 1.7-5 1.3-10.4 1.6-5.6.2-5.6-.2-10.4-1.6-5-1.3-4.5-1.7-4.1-2-3.8-2.4-3-2.5-2.3-2.6-1.4-2.2-1.5-4.4-.2-2.2.7-4.5 2.4-4.4 2.3-2.6 3-2.5 3.8-2.4 4.1-2 4.5-1.7 5-1.3 10.4-1.6 5.6-.2 5.6.2 5.3.6 5.1 1 5 1.3 4.6 1.7 4 2 3.8 2.4 3 2.5 2.3 2.6 2.4 4.4z"/><path fill="#1e2c3f" d="m385.8 471.7-.3 3.4-.6 3.2-1.1 3-1.4 2.9-1.7 2.6-2.1 2.3-2.4 2.1-2.6 1.8-2.9 1.4-3 1.1-3.2.6-3.3.3-3.4-.3-3.2-.6-3-1.1-2.9-1.4-2.6-1.8-2.3-2.1-2.1-2.3-1.8-2.6-1.4-2.9-1.1-3-.6-3.2-.3-3.4.3-3.3.6-3.2 1.1-3 1.4-2.9 1.8-2.6 2.1-2.4 2.3-2.1 2.6-1.7 2.9-1.4 3-1.1 3.2-.6 3.4-.3 3.3.3 3.2.6 3 1.1 2.9 1.4 2.6 1.7 2.4 2.1 2.1 2.4 1.7 2.6 1.4 2.9 1.1 3 .6 3.2zM667.4 471.7l-.2 3.4-.7 3.2-1 3-1.5 2.9-1.7 2.6-2.1 2.3-2.4 2.1-2.6 1.8-2.8 1.4-3 1.1-3.2.6-3.4.3-3.4-.3-3.2-.6-3-1.1-2.8-1.4-2.6-1.8-2.4-2.1-2.1-2.3-1.7-2.6-1.5-2.9-1-3-.7-3.2-.2-3.4.2-3.3.7-3.2 1-3 1.5-2.9 1.7-2.6 2.1-2.4 2.4-2.1 2.6-1.7 2.8-1.4 3-1.1 3.2-.6 3.4-.3 3.4.3 3.2.6 3 1.1 2.8 1.4 2.6 1.7 2.4 2.1 2.1 2.4 1.7 2.6 1.5 2.9 1 3 .7 3.2z"/><path fill="none" stroke="#374968" stroke-width="6" d="m453.7 471.7-.3 7.7-.9 7.4-1.5 7.2-2 7-2.6 6.8-3 6.5-3.6 6.2-3.9 5.9-4.5 5.6-4.8 5.2-5.2 4.8-5.6 4.4-5.9 4-6.2 3.5-6.5 3.1-6.8 2.6-7 2-7.1 1.5-7.5.9-7.6.3-7.7-.3-7.4-.9-7.2-1.5-7-2-6.8-2.6-6.5-3.1-6.2-3.5-5.9-4-5.6-4.4-5.2-4.8-4.8-5.2-4.4-5.6-4-5.9-3.5-6.2-3.1-6.5-2.6-6.8-2-7-1.5-7.2-.9-7.4-.3-7.7.3-7.6.9-7.5 1.5-7.1 2-7 2.6-6.8 3.1-6.5 3.5-6.2 4-5.9 4.4-5.6 4.8-5.2 5.2-4.8 5.6-4.5 5.9-3.9 6.2-3.6 6.5-3 6.8-2.6 7-2 7.2-1.5 7.4-.9 7.7-.3 7.6.3 7.5.9 7.1 1.5 7 2 6.8 2.6 6.5 3 6.2 3.6 5.9 3.9 5.6 4.5 5.2 4.8 4.8 5.2 4.5 5.6 3.9 5.9 3.6 6.2 3 6.5 2.6 6.8 2 7 1.5 7.1.9 7.5zM735.4 471.7l-.4 7.7-.9 7.4-1.4 7.2-2.1 7-2.5 6.8-3.1 6.5-3.5 6.2-4 5.9-4.4 5.6-4.9 5.2-5.2 4.8-5.5 4.4-5.9 4-6.2 3.5-6.5 3.1-6.8 2.6-7 2-7.2 1.5-7.4.9-7.7.3-7.7-.3-7.4-.9-7.2-1.5-7-2-6.8-2.6-6.5-3.1-6.2-3.5-5.9-4-5.5-4.4-5.2-4.8-4.9-5.2-4.4-5.6-4-5.9-3.5-6.2-3.1-6.5-2.5-6.8-2.1-7-1.4-7.2-.9-7.4-.3-7.7.3-7.6.9-7.5 1.4-7.1 2.1-7 2.5-6.8 3.1-6.5 3.5-6.2 4-5.9 4.4-5.6 4.9-5.2 5.2-4.8 5.5-4.5 5.9-3.9 6.2-3.6 6.5-3 6.8-2.6 7-2 7.2-1.5 7.4-.9 7.7-.3 7.7.3 7.4.9 7.2 1.5 7 2 6.8 2.6 6.5 3 6.2 3.6 5.9 3.9 5.6 4.5 5.1 4.8 4.9 5.2 4.4 5.6 4 5.9 3.5 6.2 3.1 6.5 2.5 6.8 2.1 7 1.4 7.1.9 7.5z"/><path fill="#374968" d="M452.3 471.2h98.5v10.4h-98.5ZM768.3 416.7l-28.6 49-8.2-6.5 32.5-43.8zM245.1 397l24.2 49 8.2-6.4-27-42.8z"/></g><path fill="#28395e" d="m762.1 409.1-4.6-13.6-5.4-13.8-7.2-15.4-4.1-7.7-4.5-7.2-3.3-4.6-6.6-7.7-3.7-3.2-3.7-2.4-3.6-1.8-10.6 9.4-16.3 16.2-11.6 13.5-5.3 7-2-5.2-4.3-7.3-3.3-4-2.5-2.5-6.3-4.4-3.6-1.7-4.1-1.2-4.7-.9h-7.4l-9.1 1.6.7 18.1-.4 7.7-.6 3.1-.7 1.6-1.8.2-7.3-1.7-21.6-7.2-36.3-13.5-46.2-18.2-2 21.7-4.7 1.2-12.7 2.9-18.9 2.9-11 1.2-12.3.6-16.9-.2-9-.6-8.8-1.1-8.9-1.7-8.8-2.1-6.6-2-6.4-2.4-6.3-2.7-6.2-3.2-6-3.5-5.7-4.1-5.5-4.5-5.4-5-4.8-5.4-4.6-5.9-4.3-6.7-4-7.3-10.6 10-8.5 8.8-9.2 10.1-19.4 23.2-17.8 23.9-8.9 12.9-9.4 14.4-9.9 16.1-6.7-36-3.8-23.3-3.7-26-3.1-27-2-26.1-.5-12.4.4-18.4 1.4-11.9-23.7-8.9 4.4-16.4 6.2-17.9 4.3-10.3 5.5-11.7 8.6-15.9 10.6-16.6 6.1-8.2 6.7-8.4 7.2-8 7.8-7.9 8.5-7.7 1.9-3.2 1-2.6.6-3.9-.6-4.7-.9-2.6-1.5-2.9-1.9-2.6-2.8-2.9-3.7-3.1-.3-.9.6-2.6 1-1.6 2.4-2.2 3.1-2.1 5.1-2.7 6.2-2.5 9-2.9 10.1-2.8 13.9-3 15.3-2.8 19.6-3 21.4-2.6 26.5-2.8 9.7-5.5 17.1-8.5 11.8-5.1 12.7-4.9 15.1-5.2 10.4-3.1 23.4-5.9 12.2-2.5 13-2.1L536 7.3l21-1.4 11-.3 22.7.6 11.5.9 11.9 1.4 12.2 1.9 2 25.6 23.6 2.1 13.5 1.9 13.1 2.7 6 1.7 4.9 1.9 3.1 1.5 2.2 1.5 1.6 1.5-6.7 20.7 19 15.6 22 16.8 9.4 6.3 4.1 2.3 2.5 1-38.5-10.5 13 14.5 13.5 17.1 7.6 10.4 13.5 20.6 10.8 19 5.1 9.9 4.9 10.5 4.7 11 4.2 11.2 3.8 11.6 3.3 12 2.1 9.1 3.1 18.6 1 9.7-18.2 4.5-9.5 67-6.1 36.2z"/><path fill="#1d2d49" d="m784.6 211.1-7 7.7-6 6.1-15.8 14.4-9.9 8.1-11.9 9-8.3 5.9-19.1 12.1-10.2 5.8-10.9 5.7-11.7 5.6-12 5.1-12.6 4.8-13.5 4.4-20.6 5.5-22.3 4.3-11.3 1.5-11.7 1.1-12.1.6-12.5.2-10.2-.3-17.4-1.5-11.4-1.5-12-2.1-13.8-2.9-9.3-2.3-20.1-6.1-10.2-3.7-10.4-4.3-10.8-4.9-10.4-5.3-10.6-6-10.5-6.8-7.7-5.4-7.6-5.8-7.4-6.3-7.4-6.8-7.1-7-6.8-7.6-6.7-8.1-6.4-8.7-6-8.9-5.7-9.5-5.4-10.2-5.1-10.8-6.5-6.6-10-11.5-6.1-7.7-6-8.3-6.4-9.7-7.9-13.8-7.1-15.3-2.9-8.1-2.6-8.3 7.4-4.3 6.7-3.1 7.7-3.2 10.5-3.5 7.4-2.2 18.8-4.2 10.1-1.6 11.4-1.5 13-1.1 12.9-.6 14.4-.1 16 .4 9.9-6.8 8.7-5.1 14.2-7 9.6-4.2 9.6-3.7 11.2-3.8 22.4-6.4 21.9-4.5 12.4-2.1 12.1-1.6 13.1-1.3 14-.9 15.1-.6 14.7-.1 15.8.4 16.7.9 17.9 1.5-2.4 28.7L692.9 62 688 86.6l27.3 16.1-1.7 30.2 11.3 7.9 11.7 9.2 13.4 12.1 6.8 7 11.1 12.9 7.8 11.2 3.4 5.8 2.9 6z"/><path fill="#374968" d="m780.5 201.8-8 9.2-6.9 7.1-8 7.6-10.5 9.1-7.5 6-18.2 13.1-9.8 6.3-10.9 6.4-11.9 6.3-18.6 8.7-21 7.9-10.7 3.4-11.3 3.1-11.8 2.7-12.4 2.4-12.4 1.8-12.9 1.3-13.5.8-14.1.2-10.2-.3-17.4-1.4-11.4-1.6-12-2-13.8-3-9.3-2.3-20.1-6.1-10.2-3.7-10.4-4.3-10.7-4.8-10.5-5.4-10.5-6-10.6-6.7-7.7-5.4-7.5-5.9-7.5-6.3-7.4-6.7-7.1-7.1-6.8-7.6-6.6-8.1-6.5-8.7-6-8.8-5.7-9.6-5.4-10.1-5.1-10.9-6.3-5.1-9.8-9.2-5.9-6.5-7.9-9.7-8.1-11.8-3.9-6.5-3.6-7.1-3.3-7.2-3-7.8-2.6-8.3 8.4-5.2 7.2-3.9 8.2-3.9 10.9-4.5 16.4-5.7 10-2.8 10.1-2.4 11.1-2.2 21.5-2.9 20.3-1.3 11.1-.2 9.9-6.8 8.7-5.1 14.3-7.1 9.5-4.1 9.6-3.7 11.2-3.8 22.4-6.4L502 6.6l12.4-2L526.5 3l13.1-1.3 14.1-1 15.1-.5 14.7-.1 15.7.4 16.7.9 17.9 1.5-2.3 28.7 79.4 15-5.9 5.7-2.4 2.8-4.8 7.1-1.8 4.1-1 2.8-.7 5.9 52.2 38.5-23.5 5.6 11.4 11.8 5.3 5.9 12.4 15.3 6.5 9 6.3 9.5 5.9 10 3.6 7z"/></svg>