<?xml version="1.0" standalone="no"?><!DOCTYPE svg PUBLIC "-//W3C//DTD SVG 1.1//EN" "http://www.w3.org/Graphics/SVG/1.1/DTD/svg11.dtd"><svg t="1754547497634" class="icon" viewBox="0 0 1024 1024" version="1.1" xmlns="http://www.w3.org/2000/svg" p-id="2136" xmlns:xlink="http://www.w3.org/1999/xlink" width="64" height="64"><path d="M813.15169138 799.92616427c-47.1735968-98.8912192-386.3960544-91.47429653-257.14183893-242.0351104 42.316304-49.73322667 86.9324544-116.91778133 86.9324544-188.90614507 0-130.0859584-86.568976-235.8210496-193.0419392-235.8210496-106.37035947 0-193.14781653 105.7350912-193.14781654 235.8210496 0 71.98945493 27.27288427 120.258944 81.76080107 187.653072C428.37437191 689.2792032 134.55396338 698.99488107 90.14738631 793.60731627c-13.1638112 28.1046272-15.46584107 49.89258987-15.25845013 75.01734933 0 3.2407424-0.3089024 6.58190507 1.30874027 9.24523093 1.61873387 2.61529813 4.1270624 4.23293973 6.8460544 4.23293974l732.6686816 0c2.61311467 0 5.17165333-1.61873387 6.7390848-4.23293974 1.61873387-2.6633248 1.30655787-5.95427733 1.30655786-9.24523093C824.28308018 840.5189472 820.51840498 815.33742827 813.15169138 799.92616427z" p-id="2137" fill="#ffffff"></path><path d="M942.78139271 490.0461248l-97.1142144 0 0-97.10220693c0-13.4323264-10.90544213-24.29083307-24.2777344-24.29083307-13.40831253 0-24.2777344 10.85850667-24.2777344 24.29083307l0 97.10220693-97.1153056 0c-13.41922773 0-24.29083307 10.85850667-24.29083306 24.30174827 0 13.37229227 10.87160533 24.27991787 24.29083306 24.27991786l97.1153056 0 0 97.1142144c0 13.39521493 10.86942187 24.2548128 24.2777344 24.2548128 13.37229227 0 24.2777344-10.85850667 24.2777344-24.2548128l0-97.1142144 97.1142144 0c13.41922773 0 24.2777344-10.9065344 24.2777344-24.27991786C967.06021831 500.90572373 956.20062045 490.0461248 942.78139271 490.0461248z" p-id="2138" fill="#ffffff"></path></svg>